<svg width="24" height="24" fill="none" xmlns="http://www.w3.org/2000/svg"><rect width="24" height="24" rx="6" fill="#5865F2"/><path d="M16.86 7.889c-.92-.421-1.891-.72-2.889-.889-.136.244-.26.495-.37.752a10.756 10.756 0 0 0-3.205 0 7.941 7.941 0 0 0-.37-.752c-.998.17-1.97.47-2.89.89-1.829 2.705-2.324 5.343-2.077 7.942 1.07.791 2.27 1.393 3.543 1.779.287-.386.54-.795.759-1.224a7.535 7.535 0 0 1-1.195-.57c.1-.073.198-.148.293-.22a8.321 8.321 0 0 0 7.082 0c.096.078.194.153.293.22a7.563 7.563 0 0 1-1.197.571c.218.429.472.837.759 1.223a11.59 11.59 0 0 0 3.544-1.778c.291-3.014-.496-5.628-2.08-7.944zm-7.186 6.344c-.69 0-1.26-.626-1.26-1.397 0-.77.55-1.403 1.258-1.403s1.274.632 1.262 1.403c-.012.77-.556 1.397-1.26 1.397zm4.652 0c-.692 0-1.26-.626-1.26-1.397 0-.77.55-1.403 1.26-1.403.709 0 1.27.632 1.258 1.403-.012.77-.555 1.397-1.258 1.397z" fill="#fff"/></svg>