<svg width="16" height="16" fill="none" xmlns="http://www.w3.org/2000/svg"><path fill-rule="evenodd" clip-rule="evenodd" d="M2.03 7.783c0 3.247 2.355 5.46 4.998 5.917a.556.556 0 1 1-.19 1.096C3.734 14.258.919 11.64.919 7.783c0-1.639.746-2.927 1.617-3.907.624-.702 1.338-1.272 1.912-1.709H2.7a.533.533 0 0 1 0-1.066h3.2c.295 0 .533.239.533.533v3.2a.533.533 0 0 1-1.066 0V2.866h-.002c-.61.46-1.354 1.022-2 1.749-.762.857-1.336 1.893-1.336 3.168zm11.849.434c0-3.213-2.305-5.412-4.915-5.902a.556.556 0 1 1 .205-1.093c3.066.576 5.821 3.18 5.821 6.995 0 1.639-.745 2.927-1.616 3.907-.624.702-1.338 1.272-1.912 1.708h1.746a.533.533 0 0 1 0 1.067h-3.2a.533.533 0 0 1-.534-.533v-3.2a.533.533 0 1 1 1.067 0v1.968h.002c.61-.46 1.354-1.022 2-1.749.762-.857 1.336-1.893 1.336-3.168z" fill="#fff"/></svg>