<svg width="24" height="24" fill="none" xmlns="http://www.w3.org/2000/svg"><path d="M13.515 20h-2.912a.8.8 0 0 1-.781-.629l-.326-1.507a6.4 6.4 0 0 1-1.228-.71l-1.47.468a.8.8 0 0 1-.935-.362l-1.46-2.52a.805.805 0 0 1 .155-.992l1.14-1.04a6.48 6.48 0 0 1 0-1.418l-1.14-1.037a.805.805 0 0 1-.155-.992L5.86 6.738a.8.8 0 0 1 .936-.362l1.47.468c.195-.144.398-.278.608-.4.202-.114.41-.217.623-.309l.327-1.505a.8.8 0 0 1 .78-.63h2.912a.8.8 0 0 1 .781.63l.33 1.506a6.553 6.553 0 0 1 1.228.71l1.47-.468a.8.8 0 0 1 .935.362l1.456 2.522a.806.806 0 0 1-.154.992l-1.14 1.04c.052.47.052.946 0 1.417l1.14 1.04c.276.255.34.666.154.991l-1.456 2.523a.801.801 0 0 1-.936.362l-1.47-.468a6.384 6.384 0 0 1-1.226.709l-.33 1.503a.8.8 0 0 1-.782.629zM12.056 8.8a3.2 3.2 0 1 0 0 6.4 3.2 3.2 0 0 0 0-6.4z" fill="#595F6C"/></svg>